<?xml version="1.0" encoding="utf-8"?>
<!-- Generator: Adobe Illustrator 16.0.0, SVG Export Plug-In . SVG Version: 6.00 Build 0)  -->
<!DOCTYPE svg PUBLIC "-//W3C//DTD SVG 1.1//EN" "http://www.w3.org/Graphics/SVG/1.1/DTD/svg11.dtd">
<svg version="1.1"
	 id="Layer_1_copy_2" shape-rendering="geometricPrecision" text-rendering="geometricPrecision" image-rendering="optimizeQuality"
	 xmlns="http://www.w3.org/2000/svg" xmlns:xlink="http://www.w3.org/1999/xlink" x="0px" y="0px" width="500px" height="500px"
	 viewBox="0 0 500 500" enable-background="new 0 0 500 500" xml:space="preserve">
<g>
	<g>
		
			<linearGradient id="SVGID_1_" gradientUnits="userSpaceOnUse" x1="80.5" y1="104.9995" x2="531.5" y2="104.9995" gradientTransform="matrix(1 0 0 -1 -56 355)">
			<stop  offset="0" style="stop-color:#00E91C"/>
			<stop  offset="1" style="stop-color:#072A00"/>
		</linearGradient>
		<path fill="url(#SVGID_1_)" d="M267.323,383.478c0-9.118-2.511-17.414-6.567-23.434c-4.056-6.004-9.646-9.75-15.792-9.75h-49.646
			c-6.131,0-11.721,3.745-15.777,9.75c-4.057,6.02-6.567,14.315-6.567,23.434c0,9.104,2.51,17.396,6.567,23.418
			c4.057,6.022,9.646,9.768,15.777,9.768h49.646c6.146,0,11.736-3.745,15.792-9.768
			C264.813,400.874,267.323,392.581,267.323,383.478z M287.739,260.413c1.704,3.57,3.12,7.434,4.216,11.493
			c1.902,7.06,2.867,14.63,2.867,22.122c0,7.512-0.965,15.081-2.867,22.123c-3.541,13.062-10.227,24.103-20.059,29.478
			c6.317,9.884,10.201,23.22,10.201,37.851c0,15.16-4.176,28.949-10.903,38.912c-6.726,9.979-16.003,16.181-26.23,16.181h-49.646
			c-1.994,0-3.964-0.237-5.879-0.689c-22.015,0.568-43.872-0.431-64.711-7.393c-22.715-7.592-44.017-22.161-62.688-49.224
			c-1.164-1.69-0.595-0.828-1.085-1.552C36.577,343.53,24.46,295.696,24.5,247.723c0.026-47.912,12.196-95.981,36.391-132.735
			c1.123-1.726,0.648-1.04,1.071-1.667c16.676-24.73,37.633-38.008,62.227-44.912c23.561-6.628,50.411-7.334,80.024-6.864
			c0.198-0.021,0.384-0.04,0.582-0.04h196.814c10.212,0,19.502,6.198,26.228,16.181c6.727,9.982,10.902,23.77,10.902,38.929
			c0,12.63-2.907,24.3-7.756,33.615h7.398c10.218,0,19.505,6.178,26.231,16.161c6.726,9.981,10.889,23.771,10.889,38.929
			c0,15.161-4.163,28.948-10.889,38.931c-6.728,9.963-16.014,16.161-26.231,16.161L287.739,260.413L287.739,260.413z
			 M184.683,327.212h73.248c10.661,0,17.441-8.414,20.348-19.201c1.177-4.332,1.772-9.119,1.772-13.984
			c0-4.844-0.596-9.628-1.772-13.982c-2.906-10.766-9.686-19.199-20.348-19.199h-28.162v25.024h-0.013
			c0,5.824-3.092,10.668-7.043,10.924c-11.642,0.804-21.659-2.06-30.155-7.728c-7.572-5.06-13.875-12.259-19.015-21.046
			c-5.3,3.983-8.577,9.788-10.11,16.202c-1.148,4.805-1.386,10.04-0.818,15.139c0.581,5.219,1.994,10.257,4.121,14.593
			C170.556,321.721,176.753,327.212,184.683,327.212z"/>
	</g>
	<g>
		<path fill="#0006A9" d="M267.323,383.478c0-9.118-2.511-17.414-6.567-23.434c-4.056-6.004-9.646-9.75-15.792-9.75h-49.646
			c-6.131,0-11.721,3.745-15.777,9.75c-4.057,6.02-6.567,14.315-6.567,23.434c0,9.104,2.51,17.396,6.567,23.418
			c4.057,6.022,9.646,9.768,15.777,9.768h49.646c6.146,0,11.736-3.745,15.792-9.768
			C264.813,400.874,267.323,392.581,267.323,383.478z M170.332,183.65c-0.027,2.884,0,5.904,0.105,9.021v0.04
			c0.688,21.848,4.626,42.675,12.526,57.875c7.083,13.649,17.562,22.868,32.045,24.262v-24.947v-54.228h0.026v-0.196
			c0.238-23.281,1.097-109.22-52.274-110.985c-0.489-0.02-0.979-0.098-1.454-0.254c-12.224,0.921-23.72,2.647-34.409,5.648
			c-21.751,6.119-40.146,17.631-54.497,38.93c-1.097,1.647-0.502,0.706-0.965,1.412c-21.419,32.555-32.203,75.094-32.229,117.496
			c-0.041,42.345,10.665,84.551,32.19,116.496c1.162,1.707,0.41,0.648,0.913,1.377c16.491,23.905,35.427,36.811,55.645,43.576
			c12.012,4.02,24.551,5.9,37.344,6.629c-4.454-9.101-7.097-20.28-7.097-32.323c0-15.159,4.176-28.946,10.902-38.928l0.159-0.235
			c-5.907-3.963-10.77-10.141-14.404-17.515c-3.501-7.14-5.828-15.416-6.779-23.928c-0.965-8.629-0.542-17.591,1.453-25.927
			c2.577-10.787,7.692-20.475,15.712-27.144c-5.775-16.396-8.814-35.655-9.501-55.461l-8.893-0.098
			c-2.181,18.827-8.087,36.086-17.02,49.128c-9.884,14.417-23.389,23.614-39.603,24.026c-4.058,0.098-7.4-4.708-7.467-10.747
			c-0.066-6.021,3.172-10.985,7.241-11.082c12.131-0.314,22.2-7.118,29.508-17.768c7.941-11.59,12.712-27.791,13.452-45.246h0.013
			c0.238-5.746,3.463-10.276,7.399-10.237 M229.769,238.938c69.466,0,139.08-0.433,208.612-0.433c6.147,0,11.735-3.745,15.779-9.766
			c4.056-6.002,6.58-14.298,6.58-23.417s-2.523-17.417-6.58-23.417c-4.044-6.019-9.632-9.766-15.779-9.766H247.582
			c-4.083,0-7.387-4.903-7.387-10.963c0-0.451,0.014-0.902,0.053-1.353c0.317-5.588,3.475-9.982,7.334-9.982v-0.039h154.025
			c6.145,0,11.732-3.746,15.789-9.769c4.044-6.02,6.568-14.314,6.568-23.417c0-9.12-2.524-17.417-6.568-23.436
			c-4.057-6.022-9.645-9.748-15.789-9.748H204.794h-0.08c25.807,32.046,25.239,91.904,25.027,112.241h0.026V238.938z
			 M287.739,260.413c1.704,3.57,3.12,7.434,4.216,11.493c1.902,7.06,2.867,14.63,2.867,22.122c0,7.512-0.965,15.081-2.867,22.123
			c-3.541,13.062-10.227,24.103-20.059,29.478c6.317,9.884,10.201,23.22,10.201,37.851c0,15.16-4.176,28.949-10.903,38.912
			c-6.726,9.979-16.003,16.181-26.23,16.181h-49.646c-1.994,0-3.964-0.237-5.879-0.689c-22.015,0.568-43.872-0.431-64.711-7.393
			c-22.715-7.592-44.017-22.161-62.688-49.224c-1.164-1.69-0.595-0.828-1.085-1.552C36.577,343.53,24.46,295.696,24.5,247.723
			c0.026-47.912,12.196-95.981,36.391-132.735c1.123-1.726,0.648-1.04,1.071-1.667c16.676-24.73,37.633-38.008,62.227-44.912
			c23.561-6.628,50.411-7.334,80.024-6.864c0.198-0.021,0.384-0.04,0.582-0.04h196.814c10.212,0,19.502,6.198,26.228,16.181
			c6.727,9.982,10.902,23.77,10.902,38.929c0,12.63-2.907,24.3-7.756,33.615h7.398c10.218,0,19.505,6.178,26.231,16.161
			c6.726,9.981,10.889,23.771,10.889,38.929c0,15.161-4.163,28.948-10.889,38.931c-6.728,9.963-16.014,16.161-26.231,16.161
			L287.739,260.413L287.739,260.413z M184.683,327.212h73.248c10.661,0,17.441-8.414,20.348-19.201
			c1.177-4.332,1.772-9.119,1.772-13.984c0-4.844-0.596-9.628-1.772-13.982c-2.906-10.766-9.686-19.199-20.348-19.199h-28.162
			v25.024h-0.013c0,5.824-3.092,10.668-7.043,10.924c-11.642,0.804-21.659-2.06-30.155-7.728
			c-7.572-5.06-13.875-12.259-19.015-21.046c-5.3,3.983-8.577,9.788-10.11,16.202c-1.148,4.805-1.386,10.04-0.818,15.139
			c0.581,5.219,1.994,10.257,4.121,14.593C170.556,321.721,176.753,327.212,184.683,327.212z"/>
	</g>
</g>
</svg>
